<?xml version="1.0" encoding="UTF-8" standalone="no"?>
<!-- Created with Inkscape (http://www.inkscape.org/) -->

<svg
   version="1.1"
   id="svg2"
   width="100"
   height="100"
   viewBox="0 0 100 99.999998"
   sodipodi:docname="icon.svg"
   inkscape:version="1.2.2 (b0a8486541, 2022-12-01)"
   xmlns:inkscape="http://www.inkscape.org/namespaces/inkscape"
   xmlns:sodipodi="http://sodipodi.sourceforge.net/DTD/sodipodi-0.dtd"
   xmlns="http://www.w3.org/2000/svg"
   xmlns:svg="http://www.w3.org/2000/svg">
  <defs
     id="defs6" />
  <sodipodi:namedview
     id="namedview4"
     pagecolor="#ffffff"
     bordercolor="#000000"
     borderopacity="0.25"
     inkscape:showpageshadow="2"
     inkscape:pageopacity="0.0"
     inkscape:pagecheckerboard="0"
     inkscape:deskcolor="#d1d1d1"
     showgrid="false"
     inkscape:zoom="4.3652096"
     inkscape:cx="12.599624"
     inkscape:cy="45.931357"
     inkscape:window-width="1440"
     inkscape:window-height="837"
     inkscape:window-x="0"
     inkscape:window-y="26"
     inkscape:window-maximized="1"
     inkscape:current-layer="g10">
    <inkscape:page
       x="0"
       y="0"
       id="page8"
       width="100"
       height="100"
       inkscape:export-filename="apple-touch-icon-180x180.png.png"
       inkscape:export-xdpi="172.8"
       inkscape:export-ydpi="172.8" />
  </sodipodi:namedview>
  <g
     id="g10"
     inkscape:groupmode="layer"
     inkscape:label="Page 1"
     transform="matrix(1.3333333,0,0,-1.3333333,0,1122.52)">
    <g
       id="g12"
       transform="translate(-3.6006582,845.49134)">
      <g
         id="g14">
        <g
           id="g16">
          <g
             id="g18">
            <path
               d="m 66.56128,-49.90335 c -3.64667,-10.55113 -13.66753,-18.12879 -25.45851,-18.1288 0.47651,0 0.95383,0.01266 1.43147,0.03812"
               style="fill:none;stroke:#b300ff;stroke-width:8.50412;stroke-linecap:butt;stroke-linejoin:miter;stroke-miterlimit:10;stroke-dasharray:none;stroke-opacity:1"
               id="path20" />
            <g
               id="g22">
              <path
                 d="m 61.91422,-50.12862 c 0.6284,1.61423 1.13549,3.28992 1.5164,5.03372 0.17802,1.18546 0.29304,2.37572 0.34567,3.5706 1.36118,-1.29415 2.64574,-2.73165 3.84096,-4.31303 1.61809,1.2349 3.17554,2.62183 4.66157,4.15888 -0.07225,-1.63631 -0.2301,-3.27049 -0.47492,-4.90132 -0.52509,-2.40219 -1.22396,-4.71253 -2.09019,-6.93695 -2.59981,1.12936 -5.19969,2.25874 -7.79949,3.3881 z"
                 style="fill:#b300ff;fill-opacity:1;fill-rule:nonzero;stroke:none"
                 id="path24" />
            </g>
            <g
               id="g26">
              <path
                 d="m 45.24335,-72.00768 c -2.48293,-0.23228 -4.96117,-0.26542 -7.42313,-0.10299 -1.40324,1.61531 -2.64436,3.2881 -3.72356,5.00619 1.67191,1.05378 3.21306,2.20758 4.61905,3.4504 1.79015,-0.11832 3.59236,-0.09403 5.39807,0.07472 0.37652,-2.8094 0.75304,-5.61891 1.12957,-8.42832 z"
                 style="fill:#b300ff;fill-opacity:1;fill-rule:nonzero;stroke:none"
                 id="path28" />
            </g>
            <g
               id="g30">
              <path
                 d="m 35.2347,-71.72667 c -1.59923,0.35028 -3.18189,0.78519 -4.73984,1.3027 -0.97696,1.9045 -1.78473,3.82705 -2.42295,5.75454 1.87722,0.62193 3.65219,1.3723 5.3156,2.24232 1.13323,-0.37663 2.28441,-0.69293 3.4478,-0.94768 -1.50279,-1.12129 -3.13724,-2.14157 -4.89411,-3.05075 0.93427,-1.80333 2.03367,-3.57481 3.2935,-5.30113 z"
                 style="fill:#b300ff;fill-opacity:1;fill-rule:nonzero;stroke:none"
                 id="path32" />
            </g>
          </g>
          <g
             id="g34">
            <path
               d="m 20.75226,-23.45518 c -7.31412,-8.43374 -8.86623,-20.90122 -2.97086,-31.11226 -0.23823,0.41265 -0.4659,0.83234 -0.68265,1.25868"
               style="fill:none;stroke:#4c4ce6;stroke-width:8.50412;stroke-linecap:butt;stroke-linejoin:miter;stroke-miterlimit:10;stroke-dasharray:none;stroke-opacity:1"
               id="path36" />
            <g
               id="g38">
              <path
                 d="m 16.04669,-22.53181 c 1.49332,1.86242 3.14461,3.62274 4.96242,5.27859 1.28986,1.02747 2.62622,1.98129 4.00711,2.86192 -0.58802,-2.05539 -1.01041,-4.09764 -1.27075,-6.11636 1.96716,-0.2444 3.85429,-0.63817 5.65567,-1.16978 -1.0085,-0.64313 -1.98166,-1.33782 -2.91931,-2.08466 -1.31967,-1.20178 -2.51732,-2.47888 -3.60108,-3.83019 -2.27798,1.68682 -4.55606,3.37366 -6.83406,5.06048 z"
                 style="fill:#4c4ce6;fill-opacity:1;fill-rule:nonzero;stroke:none"
                 id="path40" />
            </g>
            <g
               id="g42">
              <path
                 d="m 20.13246,-49.73396 c 0.75658,-1.64797 1.63624,-3.2204 2.63384,-4.71167 -0.37333,-1.83905 -0.60202,-3.75067 -0.6785,-5.72563 -2.02768,0.07579 -4.09699,0.31423 -6.19748,0.72186 -1.37152,2.05083 -2.58185,4.21382 -3.62196,6.4802 2.62134,1.0784 5.24276,2.15684 7.8641,3.23524 z"
                 style="fill:#4c4ce6;fill-opacity:1;fill-rule:nonzero;stroke:none"
                 id="path44" />
            </g>
            <g
               id="g46">
              <path
                 d="m 23.94827,-55.93446 c 0.80255,-0.88041 1.65209,-1.7192 2.54477,-2.51226 0.07846,-1.87561 0.31598,-3.78785 0.71594,-5.72444 -1.98808,-0.41125 -4.0568,-0.6732 -6.19488,-0.77911 -1.22733,1.0905 -2.3953,2.2437 -3.49838,3.45367 2.12508,-0.22802 4.20894,-0.29445 6.23785,-0.2019 -0.09109,1.9761 -0.02475,3.9017 0.1947,5.76404 z"
                 style="fill:#4c4ce6;fill-opacity:1;fill-rule:nonzero;stroke:none"
                 id="path48" />
            </g>
          </g>
          <g
             id="g50">
            <path
               d="m 35.99513,-14.65472 c 10.96087,2.11731 22.53409,-2.7723 28.42943,-12.98337 -0.23822,0.41266 -0.48782,0.81972 -0.74866,1.22062"
               style="fill:none;stroke:#00ffe6;stroke-width:8.50412;stroke-linecap:butt;stroke-linejoin:miter;stroke-miterlimit:10;stroke-dasharray:none;stroke-opacity:1"
               id="path52" />
            <g
               id="g54">
              <path
                 d="m 38.51363,-18.5666 c -1.71218,-0.26288 -3.41701,-0.66158 -5.1176,-1.20363 -1.11553,-0.43847 -2.20382,-0.93402 -3.26494,-1.48578 0.44021,1.82581 1.04288,3.65707 1.8148,5.48285 -1.87842,0.78389 -3.85823,1.43924 -5.93229,1.9577 1.45317,0.75558 2.94734,1.43593 4.48214,2.03935 2.3429,0.74626 4.69306,1.29613 7.05258,1.65819 0.32178,-2.81621 0.64354,-5.63249 0.96531,-8.44868 z"
                 style="fill:#00ffe6;fill-opacity:1;fill-rule:nonzero;stroke:none"
                 id="path56" />
            </g>
            <g
               id="g58">
              <path
                 d="m 65.7976,-22.06473 c 1.4424,-2.03409 2.71008,-4.1636 3.80035,-6.37689 -0.69733,-2.02274 -1.52547,-3.93391 -2.47382,-5.72757 -1.74861,0.92102 -3.51842,1.6788 -5.29778,2.27515 -0.79254,1.60949 -1.71456,3.15794 -2.76341,4.6373 2.24486,1.73064 4.48981,3.46136 6.73466,5.19201 z"
                 style="fill:#00ffe6;fill-opacity:1;fill-rule:nonzero;stroke:none"
                 id="path60" />
            </g>
            <g
               id="g62">
              <path
                 d="m 70.55815,-30.8727 c 0.49611,-1.56004 0.91089,-3.14805 1.24164,-4.75608 -1.1608,-1.79866 -2.42194,-3.45943 -3.77209,-4.97562 -1.47721,1.3147 -3.0145,2.47678 -4.59965,3.48245 -0.24053,1.16969 -0.54214,2.32485 -0.90336,3.45978 1.72259,-0.74089 3.42335,-1.64624 5.08923,-2.7132 1.09459,1.71076 2.07898,3.54857 2.94423,5.50267 z"
                 style="fill:#00ffe6;fill-opacity:1;fill-rule:nonzero;stroke:none"
                 id="path64" />
            </g>
          </g>
        </g>
      </g>
    </g>
  </g>
</svg>
